<svg width="500" height="500" viewBox="0 0 500 500" fill="none" xmlns="http://www.w3.org/2000/svg">
<g clip-path="url(#clip0_6216_1005)">
<path d="M250 500C388.542 500 500 388.542 500 250C500 111.458 388.542 0 250 0C111.458 0 0 111.458 0 250C0 388.542 111.458 500 250 500Z" fill="#2775CA"/>
<path d="M196.875 398.958C115.625 369.793 73.9576 279.168 104.168 198.958C119.793 155.208 154.168 121.875 196.875 106.25C201.043 104.168 203.125 101.043 203.125 95.833V81.2505C203.125 77.083 201.043 73.958 196.875 72.918C195.833 72.918 193.75 72.918 192.708 73.958C93.7501 105.208 39.5825 210.418 70.8325 309.375C89.5825 367.708 134.375 412.5 192.708 431.25C196.875 433.333 201.043 431.25 202.083 427.083C203.125 426.043 203.125 425 203.125 422.918V408.333C203.125 405.208 200 401.043 196.875 398.958ZM307.293 73.958C303.125 71.8755 298.958 73.958 297.918 78.1255C296.875 79.168 296.875 80.208 296.875 82.293V96.8755C296.875 101.043 300 105.208 303.125 107.293C384.375 136.458 426.043 227.083 395.833 307.293C380.208 351.043 345.833 384.375 303.125 400C298.958 402.083 296.875 405.208 296.875 410.418V425C296.875 429.168 298.958 432.293 303.125 433.333C304.168 433.333 306.25 433.333 307.293 432.293C406.25 401.043 460.418 295.833 429.168 196.875C410.418 137.5 364.583 92.708 307.293 73.958Z" fill="white"/>
<path d="M227.634 150.489C257.471 141.317 289.285 150.607 309.746 173.898C309.901 174.077 310.098 174.215 310.321 174.299C311.513 174.761 312.865 174.768 314.205 175.029C331.2 178.356 344.305 191.454 348.575 207.861C352.591 223.279 348.018 239.925 336.095 250.757C334.702 252.022 333.694 252.956 333.072 253.558C333.06 253.57 333.044 253.577 333.027 253.579C333.011 253.581 332.994 253.577 332.98 253.569C332.965 253.561 332.953 253.548 332.946 253.533C332.94 253.518 332.938 253.501 332.942 253.484C333.363 251.622 333.66 249.924 333.835 248.392C335.725 231.773 323.658 217.726 306.593 218.119C299.722 218.276 293.837 220.685 288.937 225.346C286.067 228.075 282.21 231.904 277.362 236.832C278.932 238.105 280.464 239.361 281.96 240.6C285.491 243.527 288.314 247.024 290.425 251.09C293.46 256.941 294.805 263.175 294.463 269.792C293.946 279.733 289.963 287.939 282.514 294.409L224.911 351.702C224.82 351.792 224.713 351.864 224.595 351.912C224.478 351.961 224.352 351.985 224.224 351.985H191.278C191.252 351.985 191.227 351.978 191.205 351.964C191.184 351.95 191.166 351.93 191.156 351.907C191.147 351.883 191.145 351.857 191.15 351.832C191.155 351.807 191.167 351.783 191.186 351.765L265.988 277.408C269.738 273.959 271.005 269.765 269.786 264.827C269.052 261.842 267.173 259.834 264.404 257.657C262.977 256.535 261.606 255.354 260.291 254.116C260.244 254.072 260.182 254.047 260.117 254.047C260.052 254.048 259.991 254.075 259.946 254.12L247.091 266.803L161.473 351.729C161.298 351.902 161.062 352 160.816 352H150.385C150.298 352 150.213 351.965 150.151 351.904C150.089 351.843 150.054 351.76 150.053 351.673C150.004 343.872 149.995 336.441 150.027 329.381C150.03 328.448 150.149 328.047 150.865 327.338C169.514 308.861 195.884 282.67 229.975 248.766C230.73 248.017 231.49 247.272 232.256 246.533L238.867 240.063C238.898 240.033 238.923 239.997 238.938 239.957C238.954 239.918 238.96 239.875 238.958 239.832C238.956 239.789 238.945 239.747 238.926 239.708C238.906 239.67 238.878 239.636 238.845 239.608C237.387 238.411 235.585 236.946 233.788 236.277C228.942 234.483 224.271 234.987 219.775 237.787C219.017 238.257 217.953 239.189 216.582 240.584C213.23 243.989 209.86 247.364 206.472 250.708L150.226 306.684C150.21 306.699 150.189 306.71 150.167 306.714C150.146 306.718 150.124 306.715 150.103 306.707C150.083 306.699 150.065 306.686 150.053 306.668C150.041 306.65 150.035 306.629 150.035 306.607C150.018 301.589 150.008 291.247 150.008 275.582C150.008 274.892 150.056 274.287 150.152 273.768C150.176 273.648 150.234 273.539 150.318 273.453L183.785 240.228C188.396 235.641 193.008 231.078 197.62 226.54C202 222.227 204.515 219.803 205.162 219.269C207.891 217.029 210.895 215.248 214.173 213.926C224.902 209.596 235.396 209.833 245.656 214.635C249.757 216.556 253.368 219.342 256.35 222.654C256.364 222.669 256.38 222.682 256.398 222.69C256.416 222.699 256.435 222.704 256.455 222.704C256.475 222.705 256.494 222.702 256.512 222.695C256.53 222.687 256.546 222.677 256.56 222.663L258.809 220.401L290.838 188.817C290.854 188.802 290.866 188.783 290.873 188.763C290.881 188.743 290.883 188.721 290.882 188.699C290.88 188.678 290.874 188.657 290.863 188.638C290.853 188.619 290.838 188.602 290.82 188.589C289.628 187.734 288.288 186.122 286.952 185.009C275.549 175.495 261.417 170.741 246.486 171.824C235.621 172.61 225.639 176.39 216.539 183.163C214.031 185.129 211.092 187.776 207.723 191.105C188.38 210.234 169.209 229.209 150.208 248.032C150.195 248.044 150.178 248.053 150.16 248.057C150.143 248.06 150.124 248.058 150.107 248.051C150.091 248.045 150.077 248.034 150.067 248.019C150.057 248.005 150.052 247.987 150.053 247.969C150.004 235.984 149.989 225.268 150.008 215.821C150.011 215.317 150.176 214.882 150.504 214.514C151.217 213.716 151.903 212.99 152.563 212.336C153.544 211.365 167.446 197.563 194.268 170.932C195.842 169.367 197.934 167.464 200.54 165.222C208.727 158.436 217.758 153.525 227.634 150.489Z" fill="white"/>
</g>
<defs>
<clipPath id="clip0_6216_1005">
<rect width="500" height="500" fill="white"/>
</clipPath>
</defs>
</svg>
