<svg xmlns="http://www.w3.org/2000/svg" viewBox="0 0 1200 600" width="1200" height="600">
  <defs>
    <linearGradient id="bg" x1="0" y1="0" x2="1" y2="1">
      <stop offset="0" stop-color="#1a1712"/>
      <stop offset="0.55" stop-color="#221d15"/>
      <stop offset="1" stop-color="#15120d"/>
    </linearGradient>
    <radialGradient id="topGlow" cx="0.78" cy="0" r="0.7">
      <stop offset="0" stop-color="#d4a04a" stop-opacity="0.20"/>
      <stop offset="1" stop-color="#000" stop-opacity="0"/>
    </radialGradient>
    <radialGradient id="leftGlow" cx="0.05" cy="0.55" r="0.45">
      <stop offset="0" stop-color="#d4a04a" stop-opacity="0.08"/>
      <stop offset="1" stop-color="#000" stop-opacity="0"/>
    </radialGradient>
    <linearGradient id="goldInk" x1="0" y1="0" x2="0" y2="1">
      <stop offset="0" stop-color="#f0c97a"/>
      <stop offset="0.5" stop-color="#d4a04a"/>
      <stop offset="1" stop-color="#a87a26"/>
    </linearGradient>
    <linearGradient id="hubraMark" x1="0.5" y1="0" x2="0.5" y2="1">
      <stop offset="0.346" stop-color="#FFD966"/>
      <stop offset="1" stop-color="#E6A820" stop-opacity="0.20"/>
    </linearGradient>
    <linearGradient id="rule" x1="0" y1="0" x2="1" y2="0">
      <stop offset="0" stop-color="#d4a04a" stop-opacity="0"/>
      <stop offset="0.5" stop-color="#d4a04a" stop-opacity="0.85"/>
      <stop offset="1" stop-color="#d4a04a" stop-opacity="0"/>
    </linearGradient>
    <linearGradient id="ruleRight" x1="0" y1="0" x2="1" y2="0">
      <stop offset="0" stop-color="#d4a04a" stop-opacity="0"/>
      <stop offset="1" stop-color="#d4a04a" stop-opacity="0.75"/>
    </linearGradient>
    <linearGradient id="vrule" x1="0" y1="0" x2="0" y2="1">
      <stop offset="0" stop-color="#d4a04a" stop-opacity="0"/>
      <stop offset="0.5" stop-color="#d4a04a" stop-opacity="0.6"/>
      <stop offset="1" stop-color="#d4a04a" stop-opacity="0"/>
    </linearGradient>
  </defs>

  <rect width="1200" height="600" fill="url(#bg)"/>
  <rect width="1200" height="600" fill="url(#topGlow)"/>
  <rect width="1200" height="600" fill="url(#leftGlow)"/>

  <rect x="20" y="20" width="1160" height="560" fill="none" stroke="#d4a04a" stroke-opacity="0.14" stroke-width="1"/>

  <g stroke="#d4a04a" stroke-opacity="0.55" stroke-width="1.1" fill="none">
    <path d="M 32 50 L 32 32 L 50 32"/>
    <path d="M 1168 50 L 1168 32 L 1150 32"/>
    <path d="M 32 550 L 32 568 L 50 568"/>
    <path d="M 1168 550 L 1168 568 L 1150 568"/>
  </g>

  <g transform="translate(80, 80) scale(0.118)">
    <path d="M137.8 6.21297C190.762 -10.1187 247.23 6.4224 283.549 47.8923C283.824 48.2095 284.174 48.4552 284.569 48.6052C286.686 49.429 289.085 49.4406 291.463 49.9048C321.63 55.8281 344.891 79.1504 352.471 108.362C359.6 135.814 351.482 165.451 330.319 184.738C327.847 186.991 326.058 188.653 324.953 189.725C324.931 189.746 324.903 189.759 324.873 189.763C324.844 189.766 324.815 189.76 324.789 189.745C324.763 189.73 324.741 189.708 324.73 189.681C324.718 189.654 324.715 189.623 324.722 189.594C325.469 186.278 325.997 183.255 326.307 180.527C329.662 150.937 308.244 125.928 277.953 126.627C265.757 126.906 255.31 131.195 246.613 139.494C241.52 144.354 234.672 151.171 226.067 159.945C228.854 162.211 231.574 164.448 234.229 166.653C240.497 171.866 245.507 178.092 249.255 185.332C254.641 195.749 257.029 206.848 256.421 218.63C255.504 236.33 248.434 250.94 235.212 262.46L132.966 364.47C132.806 364.63 132.616 364.758 132.407 364.844C132.198 364.93 131.974 364.973 131.748 364.973H73.2682C73.2225 364.973 73.1777 364.961 73.1395 364.936C73.1015 364.911 73.0704 364.876 73.0528 364.834C73.0353 364.792 73.0316 364.745 73.0404 364.7C73.0495 364.656 73.0721 364.614 73.1048 364.582L205.878 232.189C212.535 226.048 214.783 218.582 212.621 209.79C211.317 204.475 207.981 200.899 203.067 197.023C200.534 195.026 198.1 192.923 195.767 190.718C195.683 190.64 195.572 190.596 195.458 190.597C195.343 190.598 195.234 190.645 195.153 190.725L172.337 213.308L20.3649 364.517C20.0547 364.826 19.6345 365 19.1986 365H0.683451C0.528182 365 0.377839 364.938 0.267436 364.829C0.157676 364.72 0.0958768 364.573 0.0940961 364.418C0.00673372 350.527 -0.00973821 337.297 0.0470467 324.727C0.0535989 323.066 0.264165 322.352 1.53529 321.09C34.637 288.192 81.4439 241.559 141.955 181.193C143.296 179.859 144.646 178.534 146.004 177.218L157.739 165.698C157.794 165.644 157.838 165.58 157.865 165.509C157.893 165.439 157.904 165.363 157.9 165.287C157.896 165.21 157.878 165.135 157.843 165.066C157.809 164.998 157.759 164.937 157.7 164.888C155.111 162.757 151.914 160.147 148.723 158.957C140.122 155.763 131.832 156.659 123.851 161.645C122.506 162.482 120.616 164.142 118.183 166.626C112.234 172.688 106.252 178.697 100.237 184.651L0.401155 284.315C0.372322 284.342 0.336168 284.362 0.297151 284.369C0.258494 284.376 0.219233 284.371 0.183242 284.357C0.14731 284.342 0.115619 284.319 0.0940961 284.287C0.0725576 284.256 0.0616085 284.217 0.0619044 284.178C0.0313275 275.243 0.0148551 256.83 0.0148551 228.939C0.0148677 227.71 0.0995675 226.633 0.269912 225.709C0.312806 225.496 0.415178 225.301 0.56459 225.147L59.9681 165.992C68.1537 157.824 76.3398 149.701 84.5254 141.62C92.3007 133.94 96.7634 129.624 97.9122 128.674C102.756 124.686 108.088 121.515 113.906 119.162C132.951 111.452 151.578 111.873 169.789 120.424C177.068 123.843 183.478 128.804 188.772 134.702C188.795 134.728 188.824 134.751 188.856 134.766C188.888 134.781 188.923 134.79 188.958 134.791C188.993 134.792 189.027 134.786 189.059 134.773C189.091 134.76 189.12 134.741 189.143 134.716L193.135 130.689L249.988 74.4549C250.015 74.4276 250.037 74.3945 250.05 74.3584C250.063 74.3223 250.068 74.2828 250.065 74.2445C250.062 74.2065 250.051 74.169 250.033 74.1356C250.014 74.1019 249.987 74.0717 249.956 74.049C247.84 72.5256 245.461 69.656 243.089 67.675C222.849 50.7353 197.766 42.2705 171.262 44.1992C151.977 45.5985 134.259 52.328 118.106 64.3878C113.655 67.8878 108.439 72.6016 102.459 78.5293C68.1252 112.587 34.0952 146.373 0.368963 179.886C0.345703 179.908 0.316417 179.924 0.28477 179.931C0.253126 179.937 0.220039 179.932 0.190671 179.921C0.161554 179.909 0.136012 179.889 0.118859 179.864C0.101688 179.838 0.0931409 179.806 0.0940961 179.775C0.00673371 158.435 -0.0200894 139.355 0.0148551 122.535C0.0192231 121.638 0.312987 120.862 0.893935 120.209C2.16069 118.788 3.37827 117.494 4.54893 116.33C6.29067 114.601 30.9662 90.0276 78.5749 42.61C81.3704 39.8249 85.0826 36.4362 89.7083 32.4439C104.241 20.3621 120.271 11.6177 137.8 6.21297Z" fill="url(#hubraMark)"/>
  </g>

  <text x="142" y="115"
        font-family="'Bodoni 72 Book', 'Bodoni 72', 'Didot', 'Playfair Display', 'Hoefler Text', Georgia, serif"
        font-size="38" font-weight="500" letter-spacing="-0.9" fill="#f5f1e9">Hubra</text>

  <g transform="translate(1120, 0)" text-anchor="end">
    <text y="98"
          font-family="ui-monospace, 'SF Mono', Menlo, monospace"
          font-size="12" font-weight="500" letter-spacing="6" fill="#d4a04a" fill-opacity="0.9">SOLANA  ·  STAKING</text>
    <rect x="-110" y="112" width="110" height="1" fill="url(#ruleRight)"/>
    <text y="134"
          font-family="ui-monospace, 'SF Mono', Menlo, monospace"
          font-size="10" font-weight="500" letter-spacing="5" fill="#857f72">ON  CHAIN</text>
  </g>

  <rect x="56" y="218" width="2" height="232" fill="url(#vrule)"/>

  <g font-family="'Bodoni 72 Book', 'Bodoni 72', 'Didot', 'Playfair Display', 'Hoefler Text', Georgia, serif"
     fill="#f5f1e9">
    <text x="80" y="305" font-size="106" font-weight="400" letter-spacing="-3.5">Your stake,</text>
    <text x="80" y="410" font-size="106" font-weight="400" letter-spacing="-3" font-style="italic" fill="url(#goldInk)">trusted.</text>
  </g>

  <text x="80" y="470"
        font-family="'Optima', 'Avenir Next', system-ui, -apple-system, sans-serif"
        font-size="22" font-weight="400" letter-spacing="0.3" fill="#b9b1a3">
    Native, liquid, and USDC staking on Solana.
  </text>

  <rect x="80" y="524" width="1040" height="1" fill="url(#rule)"/>

  <text x="80" y="556"
        font-family="ui-monospace, 'SF Mono', Menlo, monospace"
        font-size="12" font-weight="500" letter-spacing="5" fill="#d4a04a" fill-opacity="0.9">HUBRA.APP</text>

  <g transform="translate(1120, 556)" text-anchor="end"
     font-family="ui-monospace, 'SF Mono', Menlo, monospace"
     font-size="12" font-weight="500" letter-spacing="5">
    <text fill="#d4a04a" fill-opacity="0.78">NATIVE  ·  LIQUID  ·  USDC</text>
  </g>
</svg>
